<?xml version="1.0" encoding="utf-8"?>
<!-- Generator: Adobe Illustrator 25.1.0, SVG Export Plug-In . SVG Version: 6.00 Build 0)  -->
<svg version="1.1" id="Capa_1" xmlns="http://www.w3.org/2000/svg" xmlns:xlink="http://www.w3.org/1999/xlink" x="0px" y="0px"
	 viewBox="0 0 512 512" style="enable-background:new 0 0 512 512;" xml:space="preserve">
<style type="text/css">
	.st0{fill:#FFBE06;}
</style>
<g>
	<path class="st0" d="M346,301c24.8,0,45-20.2,45-45s-20.2-45-45-45s-45,20.2-45,45S321.2,301,346,301z M346,241c8.3,0,15,6.7,15,15
		c0,8.3-6.7,15-15,15s-15-6.7-15-15C331,247.7,337.7,241,346,241z"/>
	<path class="st0" d="M467,91h-86l-116-88C259.7-1,252.3-1,246.9,3L131,91H45c-24.8,0-45,20.2-45,45v331c0,24.8,20.2,45,45,45h422
		c24.8,0,45-20.2,45-45V136C512,111.2,491.8,91,467,91z M256,33.8L331.4,91H180.6L256,33.8z M482,467c0,8.3-6.7,15-15,15H45
		c-8.3,0-15-6.7-15-15V136c0-8.3,6.7-15,15-15h422c8.3,0,15,6.7,15,15V467z"/>
	<path class="st0" d="M437,151H75c-8.3,0-15,6.7-15,15v271c0,8.3,6.7,15,15,15h362c8.3,0,15-6.7,15-15V166
		C452,157.7,445.3,151,437,151z M422,181v181h-98.8c-31.8-40-60.5-76.1-115.5-145.3c-2.8-3.6-7.1-5.7-11.7-5.7c0,0,0,0,0,0
		c-4.6,0-8.9,2.1-11.7,5.6L90,334.3V181H422z M155.1,301h81.3l48.5,61H106.2L155.1,301z M179.2,271l16.8-21l16.7,21H179.2z M90,422
		v-30h332v30H90z"/>
</g>
</svg>
