<?xml version="1.0" encoding="utf-8"?>
<!-- Generator: Adobe Illustrator 25.1.0, SVG Export Plug-In . SVG Version: 6.00 Build 0)  -->
<svg version="1.1" id="Capa_1" xmlns="http://www.w3.org/2000/svg" xmlns:xlink="http://www.w3.org/1999/xlink" x="0px" y="0px"
	 viewBox="0 0 60 60" style="enable-background:new 0 0 60 60;" xml:space="preserve">
<style type="text/css">
	.st0{fill:#FFBE06;}
</style>
<g>
	<g>
		<path class="st0" d="M55.5,1.5h-51C2,1.5,0,3.5,0,6v32.5V43c0,2.5,2,4.5,4.5,4.5h17.9c0.1,1.8-0.6,3.5-2,4.5l-1.8,1.3
			c-0.1,0.1-0.2,0.2-0.3,0.3C17,53.7,16,54.7,16,56c0,1.4,1.1,2.5,2.5,2.5h23c1.4,0,2.5-1.1,2.5-2.5c0-1.3-1-2.3-2.2-2.5
			c-0.1-0.1-0.2-0.2-0.3-0.3L39.7,52c-1.4-1-2.2-2.7-2-4.5h17.9c2.5,0,4.5-2,4.5-4.5v-4.5V6C60,3.5,58,1.5,55.5,1.5z M2,6
			c0-1.4,1.1-2.5,2.5-2.5h51C56.9,3.5,58,4.6,58,6v30.5H2V6z M41.5,56.5h-23c-0.3,0-0.5-0.2-0.5-0.5s0.2-0.5,0.5-0.5h0.7h21.5h0.7
			c0.3,0,0.5,0.2,0.5,0.5S41.8,56.5,41.5,56.5z M35.6,47.5c-0.1,2.3,0.9,4.6,2.7,6H21.6c1.8-1.4,2.9-3.7,2.7-6L35.6,47.5z M58,43
			c0,1.4-1.1,2.5-2.5,2.5H38.1H21.9H4.5C3.1,45.5,2,44.4,2,43v-4.5h56V43z"/>
		<path class="st0" d="M5,11.5c0.3,0,0.5-0.1,0.7-0.3l4-4c0.4-0.4,0.4-1,0-1.4s-1-0.4-1.4,0l-4,4c-0.4,0.4-0.4,1,0,1.4
			C4.5,11.4,4.7,11.5,5,11.5z"/>
		<path class="st0" d="M5,16.5c0.3,0,0.5-0.1,0.7-0.3l2-2c0.4-0.4,0.4-1,0-1.4s-1-0.4-1.4,0l-2,2c-0.4,0.4-0.4,1,0,1.4
			C4.5,16.4,4.7,16.5,5,16.5z"/>
		<path class="st0" d="M8.3,10.8C8.1,11,8,11.2,8,11.5s0.1,0.5,0.3,0.7c0.2,0.2,0.4,0.3,0.7,0.3c0.3,0,0.5-0.1,0.7-0.3
			C9.9,12,10,11.8,10,11.5S9.9,11,9.7,10.8C9.3,10.4,8.7,10.4,8.3,10.8z"/>
		<path class="st0" d="M10.3,10.2c0.2,0.2,0.5,0.3,0.7,0.3s0.5-0.1,0.7-0.3l3-3c0.4-0.4,0.4-1,0-1.4s-1-0.4-1.4,0l-3,3
			C9.9,9.2,9.9,9.8,10.3,10.2z"/>
		<path class="st0" d="M13.3,10.8l-9,9c-0.4,0.4-0.4,1,0,1.4c0.2,0.2,0.5,0.3,0.7,0.3s0.5-0.1,0.7-0.3l9-9c0.4-0.4,0.4-1,0-1.4
			S13.7,10.4,13.3,10.8z"/>
		<path class="st0" d="M15.3,8.8C15.1,9,15,9.2,15,9.5s0.1,0.5,0.3,0.7c0.2,0.2,0.4,0.3,0.7,0.3c0.3,0,0.5-0.1,0.7-0.3
			C16.9,10,17,9.8,17,9.5S16.9,9,16.7,8.8C16.3,8.4,15.7,8.4,15.3,8.8z"/>
		<path class="st0" d="M18.3,5.8l-1,1c-0.4,0.4-0.4,1,0,1.4c0.2,0.2,0.5,0.3,0.7,0.3s0.5-0.1,0.7-0.3l1-1c0.4-0.4,0.4-1,0-1.4
			S18.7,5.4,18.3,5.8z"/>
	</g>
</g>
</svg>
