<?xml version="1.0" encoding="utf-8"?>
<!-- Generator: Adobe Illustrator 25.1.0, SVG Export Plug-In . SVG Version: 6.00 Build 0)  -->
<svg version="1.1" id="Capa_1" xmlns="http://www.w3.org/2000/svg" xmlns:xlink="http://www.w3.org/1999/xlink" x="0px" y="0px"
	 viewBox="0 0 512 512" style="enable-background:new 0 0 512 512;" xml:space="preserve">
<style type="text/css">
	.st0{fill:#FFBE06;}
</style>
<g>
	<g>
		<g>
			<path class="st0" d="M494.9,153.6h-3.1l-9.7-20.7c-0.2-0.4-0.4-0.8-0.6-1.1c-4.7-7.1-12.7-11.4-21.3-11.4h-32.9
				c-8.6,0-16.6,4.3-21.3,11.4c-0.2,0.4-0.4,0.7-0.6,1.1l-9.7,20.7h-88.4v-17.1c0-2.3-0.9-4.4-2.5-6l-11.6-11.6
				c3.3-1.2,5.5-4.4,5.5-8V93.9h17.1c2.3,0,4.4-0.9,6-2.5c1.6-1.6,2.5-3.8,2.5-6V8.5c0-2.3-0.9-4.4-2.5-6c-1.6-1.6-3.8-2.5-6-2.5
				H196.3c-2.3,0-4.4,0.9-6,2.5c-1.6,1.6-2.5,3.8-2.5,6v76.8c0,2.3,0.9,4.4,2.5,6c1.6,1.6,3.8,2.5,6,2.5h17.1v17.1
				c0,3.6,2.2,6.7,5.5,8l-11.6,11.6c-1.6,1.6-2.5,3.8-2.5,6v17.1h-25.6v-17.1c0-9.4-7.6-17.1-17.1-17.1h-17.1
				c-9.4,0-17.1,7.6-17.1,17.1v17.1h-11.6l-9.7-20.7c-0.2-0.4-0.4-0.8-0.6-1.1c-4.7-7.1-12.7-11.4-21.3-11.4H51.8
				c-8.6,0-16.6,4.3-21.3,11.4c-0.2,0.4-0.4,0.7-0.6,1.1l-9.7,20.7h-3.1c-9.4,0-17.1,7.6-17.1,17.1v324.3c0,9.4,7.6,17.1,17.1,17.1
				h477.9c9.4,0,17.1-7.6,17.1-17.1V170.7C512,161.2,504.4,153.6,494.9,153.6z M420.5,140.8c1.6-2.1,4.1-3.4,6.8-3.4h32.9
				c2.7,0,5.2,1.2,6.8,3.4l6,12.8h-58.5L420.5,140.8z M204.8,17.1h102.4v25.6H204.8V17.1z M204.8,76.8V59.7h102.4v17.1H204.8z
				 M246.8,107.7c-1.3-3.2-4.4-5.3-7.9-5.3h-8.5v-8.5h51.2v8.5h-8.5c-3.5,0-6.6,2.1-7.9,5.3s-0.6,6.9,1.9,9.3l23.1,23.1v13.5h-68.3
				v-13.5L245,117C247.4,114.5,248.1,110.9,246.8,107.7z M145.1,136.5h17.1v17.1h-17.1V136.5z M45,140.8c1.6-2.1,4.1-3.4,6.8-3.4
				h32.9c2.7,0,5.2,1.2,6.8,3.4l6,12.8H39L45,140.8z M17.1,264.5h117.6c-20.9,26.8-32.3,59.9-32.3,93.9c0,4.7,0.3,9.4,0.7,14
				c0.1,1.3,0.3,2.5,0.4,3.7c0.4,3.8,1,7.6,1.7,11.3c0.2,0.8,0.3,1.6,0.4,2.5c0.9,4.4,2.1,8.7,3.3,13c0.3,1.1,0.7,2.1,1,3.2
				c1.1,3.4,2.3,6.7,3.7,10c0.4,1,0.8,2.1,1.3,3.1c1.7,4,3.6,8,5.7,11.8c0.4,0.7,0.8,1.4,1.2,2.1c1.8,3.2,3.7,6.4,5.7,9.4
				c0.7,1,1.3,2,2,3c2.4,3.5,4.9,6.9,7.6,10.2c0.1,0.1,0.2,0.2,0.3,0.4c1.3,1.6,2.8,3.1,4.2,4.7H17.1V264.5z M17.1,494.9v-17.1
				h142.5c3.1,2.5,6.4,4.9,9.7,7.2c0.9,0.6,1.8,1.2,2.7,1.8c2.9,1.9,5.9,3.7,9,5.5c1,0.6,2,1.1,3,1.7c0.6,0.3,1.1,0.7,1.7,1H17.1z
				 M200.3,483c-49.1-22-80.8-70.8-80.8-124.6c0-35.9,14.2-70.4,39.5-95.9c0.4-0.3,0.8-0.7,1.1-1.1c25.5-25.3,60-39.5,95.9-39.5
				c3.7,0,7.3,0.2,10.9,0.5c1.9,0.2,3.9,0.3,5.8,0.6c2.2,0.3,4.4,0.6,6.6,1c2.2,0.4,4.3,0.8,6.5,1.2c1.8,0.4,3.5,0.9,5.3,1.3
				c2.4,0.6,4.9,1.3,7.3,2.1c1.3,0.4,2.6,0.9,3.9,1.4c2.7,1,5.4,1.9,8,3.1c0.8,0.3,1.5,0.7,2.3,1.1c8.5,3.9,16.5,8.6,24,14.1
				c1.8,1.3,3.6,2.6,5.4,4c1.3,1.1,2.6,2.3,3.9,3.4c2.4,2.1,4.7,4.1,7,6.4l0,0c10.1,10,18.5,21.6,24.9,34.4
				c3.4,6.6,6.3,13.4,8.5,20.5c16.4,51.3,1.1,107.4-39.1,143.3S249.4,505,200.3,483z M264.5,204.8l51.2,0v12.1
				c-2.2-0.9-4.5-1.7-6.7-2.5c-2.1-0.8-4.1-1.5-6.2-2.2c-1.9-0.6-3.9-1.1-5.8-1.7c-3.1-0.9-6.2-1.7-9.3-2.3c-1-0.2-2.1-0.4-3.1-0.6
				C278,206.2,271.3,205.3,264.5,204.8z M332.8,225.5v-20.7l68.3,0v42.7l-38.9,0c-1.7-1.6-3.5-3-5.2-4.6c-1.5-1.3-2.9-2.7-4.5-3.9
				c-1.9-1.5-3.9-2.9-5.9-4.4C342.2,231.3,337.6,228.3,332.8,225.5z M494.9,494.9H326.3c0.6-0.3,1.1-0.7,1.7-1c1-0.5,2-1.1,3-1.7
				c3.1-1.7,6.1-3.5,9-5.5c0.9-0.6,1.8-1.2,2.7-1.8c3.3-2.3,6.6-4.7,9.7-7.2h142.5V494.9z M494.9,460.8H370.3
				c1.4-1.6,2.8-3.1,4.2-4.7c0.1-0.1,0.2-0.2,0.3-0.4c2.7-3.3,5.2-6.7,7.6-10.2c0.7-1,1.4-2,2-3c2-3.1,3.9-6.2,5.7-9.4
				c0.4-0.7,0.8-1.4,1.2-2.1c2.1-3.8,4-7.8,5.7-11.8c0.4-1,0.8-2.1,1.3-3.1c1.3-3.3,2.6-6.6,3.7-10c0.3-1.1,0.7-2.1,1-3.2
				c1.1-3.5,2-7.1,2.9-10.8c13.4,2.2,26.7-3.7,34.1-15.1c7.4-11.3,7.4-26,0-37.3c-7.4-11.3-20.8-17.3-34.1-15.1
				c-1-4.4-2.1-8.7-3.4-12.9c-2.5-8-5.7-15.7-9.6-23.1c-4.3-8.5-9.5-16.6-15.3-24.1h117.5L494.9,460.8L494.9,460.8z M408.6,341.4
				c0.4,0,0.7-0.1,1-0.1c9.4,0,17.1,7.6,17.1,17.1s-7.6,17.1-17.1,17.1c-0.3,0-0.7-0.1-1-0.1c0.1-1,0.2-2,0.3-3
				c0.4-4.6,0.7-9.3,0.7-14C409.6,352.7,409.2,347.1,408.6,341.4z M418.1,247.5v-42.7l42.7,0v42.7L418.1,247.5z M494.9,247.5h-17.1
				v-42.7c0-9.4-7.6-17.1-17.1-17.1H264.5c-4.6,0-8.9,1.9-12.1,5.1s-5,7.6-4.9,12.2l0,0.2c-36.5,2-71,17-97.4,42.2h-133v-76.8
				l477.9,0L494.9,247.5L494.9,247.5z"/>
			<path class="st0" d="M369.9,322.1c-1.9-6.2-4.4-12.2-7.4-18c-5.6-11.1-13-21.3-21.8-30c-40.2-40.4-103.4-46.7-150.9-15.1
				s-65.9,92.4-44.1,145c21.8,52.7,77.7,82.6,133.7,71.5s96.2-60.2,96.2-117.2C375.5,346.1,373.6,333.8,369.9,322.1z M324.3,434.7
				c-30.1,26.9-73.2,33.6-110.1,17.1c-36.9-16.5-60.6-53.1-60.6-93.5c0-41.5,25-78.8,63.3-94.6c38.3-15.8,82.4-7,111.6,22.4
				c7.6,7.5,13.9,16.2,18.7,25.8c2.6,4.9,4.7,10,6.3,15.3C365.9,365.7,354.4,407.8,324.3,434.7z"/>
			<path class="st0" d="M332,319.6c-4-7.9-9.3-15.2-15.6-21.5c-28.8-28.8-73.9-33.3-107.8-10.8s-47.1,66-31.5,103.6
				s55.5,59,95.5,51.1c39.9-7.9,68.7-43,68.7-83.7c0-8.8-1.3-17.5-4-25.9C335.9,328.1,334.2,323.8,332,319.6z M301.5,409.3
				c-20.1,17.9-48.8,22.4-73.4,11.4s-40.4-35.4-40.4-62.3c0-27.6,16.7-52.5,42.2-63.1s54.9-4.7,74.4,14.9c5.1,5,9.3,10.8,12.5,17.2
				c1.7,3.3,3.1,6.7,4.2,10.2C329.2,363.3,321.6,391.3,301.5,409.3z"/>
			<path class="st0" d="M298.7,349.9c-4.7,0-8.5,3.8-8.5,8.5c0,4.7-1,9.3-2.8,13.7c-1.2,2.8-0.9,6,0.9,8.5c1.8,2.5,4.8,3.8,7.8,3.4
				c3-0.3,5.7-2.3,6.9-5.1c2.8-6.5,4.3-13.4,4.3-20.5C307.2,353.7,303.4,349.9,298.7,349.9z"/>
			<path class="st0" d="M292.3,322.3c-10.5-10.5-25-16-39.9-14.9c-14.8,1-28.5,8.5-37.4,20.4c-2.8,3.8-2,9.1,1.7,11.9
				c3.8,2.8,9.1,2.1,11.9-1.7c5.9-7.9,15-12.9,24.9-13.6s19.6,2.9,26.6,10l0,0c3.3,3.3,8.7,3.4,12.1,0S295.6,325.6,292.3,322.3z"/>
			<path class="st0" d="M42.7,230.4h17.1c4.7,0,8.5-3.8,8.5-8.5s-3.8-8.5-8.5-8.5H42.7c-4.7,0-8.5,3.8-8.5,8.5S38,230.4,42.7,230.4z
				"/>
			<path class="st0" d="M93.9,230.4h42.7c4.7,0,8.5-3.8,8.5-8.5s-3.8-8.5-8.5-8.5H93.9c-4.7,0-8.5,3.8-8.5,8.5
				S89.2,230.4,93.9,230.4z"/>
		</g>
	</g>
</g>
</svg>
