<?xml version="1.0" encoding="utf-8"?>
<!-- Generator: Adobe Illustrator 25.1.0, SVG Export Plug-In . SVG Version: 6.00 Build 0)  -->
<svg version="1.1" id="Capa_1" xmlns="http://www.w3.org/2000/svg" xmlns:xlink="http://www.w3.org/1999/xlink" x="0px" y="0px"
	 viewBox="0 0 512 512" style="enable-background:new 0 0 512 512;" xml:space="preserve">
<style type="text/css">
	.st0{fill:#FFBE06;}
</style>
<g>
	<g>
		<g>
			<g>
				<g>
					<path class="st0" d="M68.6,443.9c-6.9,0.2-12.1-7.5-9.2-13.8c3.3-8.2,15.2-8.2,18.5,0C80.7,436.4,75.5,444.1,68.6,443.9z"/>
				</g>
			</g>
		</g>
		<g>
			<g>
				<path class="st0" d="M357.3,461.5h-194c-5.5,0-10-4.5-10-10v-63.7c0-5.5,4.5-10,10-10h194c5.5,0,10,4.5,10,10v63.7
					C367.3,457,362.8,461.5,357.3,461.5z M173.3,441.5h174v-43.7h-174L173.3,441.5z"/>
			</g>
		</g>
		<g>
			<g>
				<g>
					<path class="st0" d="M265.6,361c-17.3,0-31.4-14.1-31.4-31.4s14.1-31.4,31.4-31.4s31.4,14.1,31.4,31.4S282.9,361,265.6,361z
						 M265.6,318.2c-6.3,0-11.4,5.1-11.4,11.4s5.1,11.4,11.4,11.4c6.3,0,11.4-5.1,11.4-11.4S271.9,318.2,265.6,318.2z"/>
				</g>
			</g>
			<g>
				<g>
					<path class="st0" d="M335.9,361c-17.3,0-31.4-14.1-31.4-31.4s14.1-31.4,31.4-31.4c17.3,0,31.4,14.1,31.4,31.4
						S353.2,361,335.9,361z M335.9,318.2c-6.3,0-11.4,5.1-11.4,11.4s5.1,11.4,11.4,11.4s11.4-5.1,11.4-11.4S342.2,318.2,335.9,318.2
						z"/>
				</g>
			</g>
		</g>
	</g>
	<g>
		<g>
			<path class="st0" d="M300.8,176.1c-35.8,0-64.9-29.2-64.9-65c0-35.9,29.1-65,64.9-65c35.8,0,64.9,29.2,64.9,65
				C365.7,147,336.6,176.1,300.8,176.1z M300.8,66.1c-24.8,0-44.9,20.2-44.9,45c0,24.8,20.2,45,44.9,45c24.8,0,44.9-20.2,44.9-45
				C345.7,86.3,325.5,66.1,300.8,66.1z"/>
		</g>
		<g>
			<path class="st0" d="M507.4,225.8c-2.9-1.8-6.5-2.1-9.6-0.7l-77.6,35.4v-26.6c0-19.8-16.1-36-35.9-36h-21.5
				c27-19.4,44.6-51.1,44.6-86.8c0-58.9-47.8-106.8-106.6-106.8c-42.7,0-79.6,25.3-96.6,61.7c-17-36.4-53.9-61.7-96.6-61.7
				C48.7,4.3,0.8,52.2,0.8,111.1c0,35.7,17.6,67.4,44.6,86.8h-9.5C16.1,197.9,0,214,0,233.9v237.9c0,19.8,16.1,36,35.9,36h348.4
				c19.8,0,35.9-16.1,35.9-36v-26.6l77.6,35.4c1.3,0.6,2.7,0.9,4.1,0.9c1.9,0,3.8-0.5,5.4-1.6c2.9-1.8,4.6-5,4.6-8.4V234.2
				C512,230.8,510.3,227.7,507.4,225.8L507.4,225.8z M300.8,24.3c47.8,0,86.6,38.9,86.6,86.8c0,47.9-38.9,86.8-86.6,86.8
				c-47.8,0-86.6-38.9-86.6-86.8C214.1,63.2,253,24.3,300.8,24.3z M238.7,197.9h-69.2c14.8-10.6,26.8-25,34.6-41.7
				C211.9,172.9,223.9,187.3,238.7,197.9z M20.8,111.1c0-47.9,38.9-86.8,86.6-86.8c47.8,0,86.6,38.9,86.6,86.8
				c0,47.9-38.9,86.8-86.6,86.8C59.7,197.9,20.8,159,20.8,111.1z M400.2,471.8c0,8.8-7.1,16-15.9,16H35.9c-8.8,0-15.9-7.2-15.9-16
				V233.9c0-8.8,7.1-16,15.9-16h22.7v174.2c0,5.5,4.5,10,10,10s10-4.5,10-10V217.9h305.7c8.8,0,15.9,7.2,15.9,16V471.8z M492,455.9
				l-71.8-32.7V282.5l71.8-32.7V455.9z"/>
		</g>
		<g>
			<path class="st0" d="M107.5,176.1c-35.8,0-64.9-29.2-64.9-65c0-35.9,29.1-65,64.9-65c35.8,0,64.9,29.2,64.9,65
				C172.4,147,143.3,176.1,107.5,176.1z M107.5,66.1c-24.8,0-44.9,20.2-44.9,45c0,24.8,20.2,45,44.9,45s44.9-20.2,44.9-45
				C152.4,86.3,132.3,66.1,107.5,66.1z"/>
		</g>
	</g>
</g>
</svg>
